<svg width="205" height="61" viewBox="0 0 205 61" fill="none" xmlns="http://www.w3.org/2000/svg">
<g clip-path="url(#clip0_1151_4870)">
<path d="M205.028 54.929C205.029 55.7316 204.877 56.5265 204.581 57.2674C204.285 58.0084 203.851 58.6808 203.303 59.2455C202.755 59.8103 202.106 60.2562 201.391 60.5574C200.677 60.8585 199.912 61.009 199.142 61H5.74592C4.98675 61.0148 4.23255 60.8698 3.52847 60.5738C2.82439 60.2777 2.18493 59.8367 1.64839 59.2772C1.11185 58.7177 0.689278 58.0511 0.405977 57.3175C0.122676 56.5838 -0.0155212 55.7982 -0.000336367 55.0076V5.97353C-0.0145031 5.1841 0.124527 4.39983 0.408421 3.66771C0.692314 2.93559 1.11523 2.27071 1.65181 1.71291C2.18839 1.15511 2.82759 0.715882 3.53109 0.421554C4.2346 0.127226 4.98792 -0.0161422 5.74592 4.21945e-05H199.142C202.406 4.21945e-05 205 2.58449 205 5.98166V55.0157L205.028 54.929Z" fill="#1C1A16"/>
<mask id="mask0_1151_4870" style="mask-type:luminance" maskUnits="userSpaceOnUse" x="22" y="12" width="21" height="41">
<path d="M22.5273 13.2473V51.4018C22.5051 51.5855 22.5418 51.7716 22.6316 51.9313C22.7215 52.091 22.8595 52.2154 23.0242 52.285L42.5339 32.1458L23.1854 12.161C22.7979 12.2748 22.5273 12.6405 22.5273 13.2446" fill="white"/>
</mask>
<g mask="url(#mask0_1151_4870)">
<path d="M42.5284 12.161H22.5271V52.2768H42.5284V12.161Z" fill="url(#paint0_linear_1151_4870)"/>
</g>
<mask id="mask1_1151_4870" style="mask-type:luminance" maskUnits="userSpaceOnUse" x="23" y="12" width="25" height="21">
<path d="M23.1851 12.161L42.5283 32.1349L47.8999 26.5867L39.8359 21.7321L39.7943 21.7077H39.7735H39.7553H39.7345L24.2074 12.3398C23.9807 12.2037 23.7249 12.1292 23.4634 12.123C23.3694 12.1231 23.2759 12.1359 23.1851 12.161Z" fill="white"/>
</mask>
<g mask="url(#mask1_1151_4870)">
<path d="M47.8999 12.123H23.1851V32.1349H47.8999V12.123Z" fill="url(#paint1_linear_1151_4870)"/>
</g>
<mask id="mask2_1151_4870" style="mask-type:luminance" maskUnits="userSpaceOnUse" x="23" y="32" width="25" height="21">
<path d="M23.0239 52.2849C23.1645 52.3244 23.3114 52.3328 23.4552 52.3095C23.5991 52.2861 23.7366 52.2316 23.8589 52.1495L26.1169 50.795L39.8257 42.5323L43.8629 40.0941L47.9001 37.656L42.5284 32.1105L23.0239 52.2849Z" fill="white"/>
</mask>
<g mask="url(#mask2_1151_4870)">
<path d="M47.9001 32.135H23.0239V52.3555H47.9001V32.135Z" fill="url(#paint2_linear_1151_4870)"/>
</g>
<mask id="mask3_1151_4870" style="mask-type:luminance" maskUnits="userSpaceOnUse" x="42" y="26" width="15" height="12">
<path d="M42.5288 32.1349L47.9005 37.6803L53.8054 34.1315L55.6627 33.0153C56.542 32.4735 56.4899 31.7665 55.7902 31.3276L55.7408 31.3005L55.7174 31.2842C54.9994 30.8833 48.7953 27.1285 47.9889 26.6382L47.9005 26.5867L42.5288 32.1349Z" fill="white"/>
</mask>
<g mask="url(#mask3_1151_4870)">
<path d="M56.542 26.5867H42.5288V37.6831H56.542V26.5867Z" fill="url(#paint3_linear_1151_4870)"/>
</g>
<path d="M148.448 40.2079C147.741 40.2174 147.039 40.0706 146.39 39.7772C145.766 39.4839 145.228 39.0241 144.83 38.4443H144.702C144.785 39.1055 144.827 39.7714 144.83 40.4382V45.3822H143.071V27.9765H144.491L144.731 29.6209H144.817C145.21 29.0133 145.747 28.5224 146.377 28.1959C147.022 27.8926 147.723 27.7427 148.43 27.757C149.959 27.757 151.139 28.2989 151.97 29.3825C152.801 30.4661 153.217 31.9931 153.219 33.9635C153.219 35.9357 152.796 37.4708 151.952 38.5689C151.107 39.667 149.933 40.2088 148.43 40.1944M148.17 29.2904C146.989 29.2904 146.136 29.6299 145.613 30.309C145.089 30.9881 144.818 32.0717 144.801 33.5599V33.9635C144.801 35.6504 145.071 36.8586 145.613 37.5882C146.154 38.3179 147.021 38.6791 148.214 38.6719C148.675 38.6874 149.132 38.5798 149.542 38.3593C149.952 38.1388 150.3 37.8127 150.555 37.4122C151.119 36.5723 151.401 35.4138 151.403 33.9364C151.405 32.4591 151.122 31.3104 150.555 30.4905C150.285 30.1002 149.925 29.7861 149.509 29.5766C149.093 29.3671 148.634 29.2687 148.172 29.2904" fill="#FBFBFB"/>
<path d="M157.279 22.9349H155.534V39.9912H157.279V22.9349Z" fill="#FBFBFB"/>
<path d="M167.326 39.9885L166.98 38.2791H166.894C166.447 38.9264 165.861 39.4553 165.182 39.8232C164.502 40.1097 163.772 40.2453 163.039 40.2215C161.896 40.2215 161 39.9153 160.352 39.3031C159.703 38.6908 159.378 37.8176 159.376 36.6834C159.376 34.2561 161.24 32.9846 164.966 32.8691L166.923 32.8013V32.0563C166.923 31.1136 166.73 30.4309 166.34 29.9677C165.95 29.5044 165.325 29.2958 164.472 29.2958C163.51 29.2958 162.421 29.6019 161.208 30.2142L160.672 28.8244C161.262 28.4937 161.89 28.239 162.539 28.0659C163.205 27.8863 163.889 27.7953 164.576 27.795C165.952 27.795 166.969 28.1119 167.635 28.7486C168.301 29.3852 168.629 30.4038 168.629 31.8071V40.0047L167.326 39.9885ZM163.38 38.7071C164.467 38.7071 165.321 38.3965 165.942 37.7752C166.563 37.1539 166.873 36.2843 166.873 35.1663V34.0827L165.125 34.1586C163.738 34.2091 162.736 34.434 162.121 34.8331C161.82 35.0271 161.575 35.3024 161.413 35.6297C161.251 35.957 161.177 36.324 161.2 36.6916C161.181 36.9714 161.224 37.252 161.323 37.5126C161.423 37.7733 161.577 38.0074 161.775 38.1978C162.232 38.5672 162.802 38.7502 163.38 38.7125" fill="#FBFBFB"/>
<path d="M169.635 27.9765H171.508L174.026 34.8277C174.446 35.931 174.793 37.0623 175.067 38.2141H175.15C175.241 37.8402 175.434 37.2036 175.723 36.3015C176.011 35.3993 176.966 32.6253 178.584 27.9765H180.457L175.499 41.6546C175.008 43.0073 174.434 43.9672 173.777 44.5343C173.096 45.1104 172.239 45.4115 171.363 45.3822C170.831 45.3823 170.302 45.3196 169.784 45.1953V43.7378C170.211 43.8314 170.648 43.8759 171.084 43.8706C172.284 43.8706 173.14 43.1689 173.652 41.7656L174.294 40.0562L169.635 27.9765Z" fill="#FBFBFB"/>
<path d="M116.083 29.0926C116.637 29.5694 117.795 30.5745 117.795 32.4844C117.795 34.3428 116.783 35.226 115.768 36.0522C115.454 36.38 115.095 36.7322 115.095 37.2849C115.095 37.8375 115.454 38.1382 115.721 38.3685L116.59 39.0701C117.652 39.9993 118.617 40.8554 118.617 42.5919C118.617 44.9542 116.421 47.3409 112.272 47.3409C108.773 47.3409 107.085 45.6071 107.085 43.746C107.085 42.8411 107.517 41.5625 108.943 40.6793C110.436 39.7257 112.465 39.5957 113.549 39.5253C113.211 39.0728 112.826 38.596 112.826 37.8185C112.833 37.4766 112.916 37.141 113.068 36.8379C112.808 36.8622 112.535 36.8866 112.288 36.8866C109.733 36.8866 108.284 34.9009 108.284 32.9422C108.297 32.2987 108.441 31.6653 108.707 31.0845C108.974 30.5038 109.356 29.989 109.83 29.5749C111.203 28.3937 112.844 28.1932 114.148 28.1932H119.116L117.579 29.0926H116.083ZM114.369 40.2486C114.185 40.2271 114 40.219 113.815 40.2242C112.957 40.241 112.105 40.3768 111.281 40.6278C110.761 40.8256 109.2 41.4406 109.2 43.215C109.2 44.9894 110.865 46.2817 113.445 46.2817C115.761 46.2817 116.994 45.1222 116.994 43.5726C116.994 42.2885 116.198 41.6112 114.361 40.254M115.063 35.4806C115.617 34.9009 115.664 34.099 115.664 33.6466C115.664 31.8369 114.624 29.0222 112.626 29.0222C112.304 29.027 111.986 29.1035 111.695 29.2464C111.403 29.3894 111.144 29.5956 110.935 29.8512C110.563 30.3915 110.379 31.0483 110.415 31.7123C110.415 33.3946 111.357 36.185 113.432 36.185C114.044 36.1693 114.629 35.9184 115.074 35.4806" fill="#FBFBFB"/>
<path d="M100.894 39.8477C97.0645 39.8477 95.0173 36.7377 95.0173 33.9257C95.0173 30.6396 97.5926 27.833 101.26 27.833C102.015 27.8155 102.765 27.9561 103.466 28.2465C104.167 28.5368 104.805 28.9709 105.342 29.5231C105.879 30.0752 106.304 30.7341 106.592 31.4606C106.88 32.1872 107.024 32.9665 107.017 33.7523C107.017 36.7106 104.827 39.8477 100.899 39.8477M103.909 37.8159C104.489 37.0032 104.634 36.0089 104.634 35.031C104.634 32.8231 103.622 28.6078 100.634 28.6078C99.837 28.616 99.0691 28.9184 98.4666 29.4611C97.5276 30.3389 97.3585 31.4442 97.3585 32.5224C97.3585 35.0039 98.5395 39.0919 101.453 39.0919C101.929 39.0918 102.399 38.9764 102.825 38.755C103.251 38.5336 103.622 38.2121 103.909 37.8159Z" fill="#FBFBFB"/>
<path d="M87.8377 39.8477C84.0086 39.8477 81.9587 36.7377 81.9587 33.9257C81.9587 30.6396 84.5392 27.833 88.2018 27.833C88.9563 27.8155 89.7064 27.9561 90.4076 28.2465C91.1088 28.5368 91.7468 28.9709 92.2838 29.5231C92.8208 30.0752 93.2457 30.7341 93.5334 31.4606C93.8211 32.1872 93.9657 32.9665 93.9585 33.7523C93.9585 36.7106 91.7682 39.8477 87.8403 39.8477M90.8526 37.8159C91.43 37.0032 91.5731 36.0089 91.5731 35.031C91.5731 32.8231 90.5612 28.6078 87.5749 28.6078C86.7784 28.616 86.0105 28.9184 85.408 29.4611C84.469 30.3389 84.2999 31.4442 84.2999 32.5224C84.2999 35.0039 85.4783 39.0919 88.3943 39.0919C88.8709 39.0918 89.341 38.9765 89.7676 38.7551C90.1941 38.5336 90.5655 38.2122 90.8526 37.8159Z" fill="#FBFBFB"/>
<path d="M80.1201 39.4549L76.6578 40.2866C75.3387 40.5375 74.0028 40.6806 72.6622 40.7146C65.9769 40.7146 63.4329 35.5945 63.4329 31.5851C63.4329 26.6925 67.0435 22.1521 73.2189 22.1521C74.4714 22.159 75.7173 22.3412 76.9232 22.6939C78.0731 22.9971 79.1578 23.5238 80.1201 24.2462L78.1093 26.2374L77.2587 26.4405L77.8648 25.4301C77.0428 24.5984 75.5393 23.0596 72.6831 23.0596C68.8566 23.0596 65.9743 26.0884 65.9743 30.5014C65.9743 35.2423 69.2676 39.7123 74.5456 39.7123C75.6034 39.7394 76.654 39.5239 77.6229 39.081V35.0174L73.9655 35.2179L75.9035 34.1343H81.0358L80.4089 34.7628C80.3437 34.809 80.2884 34.8687 80.2463 34.9381C80.2043 35.0076 80.1764 35.0853 80.1644 35.1664C80.141 35.394 80.1175 36.1282 80.1175 36.3774L80.1201 39.4549Z" fill="#FBFBFB"/>
<path d="M123.738 38.7396C122.937 38.6638 122.77 38.5121 122.77 37.526V23.2411C122.77 23.1869 122.77 23.1327 122.783 23.0785C122.882 22.1981 123.124 22.0464 123.876 21.5912H120.411L118.59 22.4988H120.44V38.0732C120.44 38.5744 120.346 38.6529 119.787 39.4088H124.081L124.979 38.867C124.568 38.8128 124.154 38.7884 123.743 38.7396" fill="#FBFBFB"/>
<path d="M133.592 38.959C133.332 39.1107 133.072 39.2868 132.811 39.4115C132.073 39.7417 131.274 39.9034 130.47 39.8855C129.329 39.9391 128.204 39.596 127.271 38.9103C125.564 37.656 124.82 35.5023 124.82 33.6249C124.82 29.7428 127.848 27.8383 130.327 27.8383C131.2 27.8269 132.059 28.07 132.806 28.54C133.647 29.1159 134.247 30.0013 134.487 31.0188L128.837 33.4L126.985 33.549C127.583 36.7295 129.654 38.5825 131.927 38.5825C133.155 38.5825 134.044 38.1328 134.861 37.7075L133.592 38.959ZM131.331 31.4956C131.789 31.3195 132.028 31.1678 132.028 30.8183C132.028 29.8187 130.946 28.6511 129.648 28.6511C128.683 28.6511 126.881 29.4286 126.881 32.1322C126.881 32.5575 126.93 33.0099 126.956 33.4623L131.331 31.4956Z" fill="#FBFBFB"/>
<path d="M135.915 28.009V29.6642H135.72V28.009H135.197V27.8383H136.438V28.009H135.915Z" fill="#FBFBFB"/>
<path d="M138.077 29.6642V27.9954H138.069L137.58 29.6642H137.429L136.935 27.9954H136.929V29.6642H136.755V27.8383H137.054L137.502 29.312H137.507L137.947 27.8383H138.251V29.6642H138.077Z" fill="#FBFBFB"/>
<path d="M68.2451 17.2405H67.0407C66.969 16.7431 66.8541 16.2534 66.6973 15.7776H64.9596C64.7962 16.2521 64.6777 16.742 64.6058 17.2405H63.4717C63.4717 17.1412 63.7639 16.3059 64.3483 14.7346C64.9327 13.1634 65.2258 12.2992 65.2276 12.1421H66.6479C66.6479 12.2902 66.9132 13.1417 67.4438 14.6967C67.9745 16.2517 68.2398 17.0996 68.2398 17.2405M66.5022 15.0299C66.2519 14.313 66.0365 13.5833 65.8571 12.8437H65.8128C65.6262 13.5836 65.404 14.3133 65.1469 15.0299H66.5022Z" fill="#FCFCFD"/>
<path d="M73.0964 17.2405H72.1677C72.1677 17.1339 71.8209 16.5686 71.1272 15.5446C70.4066 14.461 69.993 13.7295 69.8942 13.334H69.8343C69.8934 13.8483 69.9246 14.3656 69.928 14.8836C69.928 15.5283 69.9453 16.314 69.98 17.2405H69.054C69.0921 16.4332 69.1112 15.5446 69.1112 14.5748C69.1112 13.6049 69.0921 12.7922 69.054 12.1366H70.1725C70.1725 12.2739 70.4821 12.8265 71.1012 13.7945C71.7602 14.8186 72.1382 15.5139 72.2353 15.8805H72.2926C72.2366 15.3606 72.2071 14.8379 72.2041 14.3147C72.2041 13.6085 72.1859 12.8861 72.1495 12.1474H73.0964C73.0599 12.7949 73.0417 13.6076 73.0417 14.5856C73.0417 15.5636 73.0599 16.4548 73.0964 17.2513" fill="#FCFCFD"/>
<path d="M78.5435 14.5152C78.5534 15.2283 78.3097 15.9202 77.8594 16.4576C77.6206 16.7376 77.3241 16.9578 76.9922 17.1018C76.6602 17.2458 76.3013 17.3099 75.9422 17.2892C75.5694 17.2892 75.0578 17.273 74.4075 17.2405C74.4387 16.4521 74.4569 15.5636 74.4569 14.5747C74.4569 13.5859 74.4387 12.8139 74.4075 12.1366H75.0656C75.1723 12.1366 75.3257 12.1366 75.5468 12.1366L75.963 12.123C76.8683 12.123 77.5247 12.3587 77.9322 12.8301C78.3363 13.2913 78.5551 13.8964 78.5435 14.5206M77.516 14.6912C77.53 14.229 77.38 13.7777 77.0946 13.4234C76.9311 13.2429 76.7307 13.103 76.5083 13.0139C76.2859 12.9248 76.0471 12.8888 75.8096 12.9087C75.6608 12.9113 75.5122 12.923 75.3647 12.9439C75.3908 13.464 75.4038 14.0113 75.4038 14.5693C75.4038 15.1924 75.4168 15.8128 75.4402 16.425C75.6011 16.4596 75.765 16.4768 75.9292 16.4765C76.1546 16.4948 76.381 16.457 76.5895 16.3661C76.7981 16.2751 76.9828 16.1338 77.1284 15.9537C77.3917 15.5869 77.5283 15.1382 77.516 14.6804" fill="#FCFCFD"/>
<path d="M83.5692 17.2405H82.461C82.3038 16.6452 82.0794 16.0713 81.7925 15.531C81.7018 15.4176 81.586 15.3287 81.4551 15.2721C81.3241 15.2155 81.182 15.1928 81.0407 15.206H80.6219C80.6219 15.8778 80.6219 16.5605 80.6558 17.2378H79.6152C79.6482 16.4485 79.6647 15.5599 79.6647 14.572C79.6647 13.6221 79.6482 12.8093 79.6152 12.1339H80.2656H80.739C80.9783 12.1339 81.1994 12.1203 81.4023 12.1203C82.5521 12.1203 83.127 12.5312 83.127 13.353C83.127 14.0004 82.7992 14.4555 82.1437 14.7075V14.7671C82.4339 14.8743 82.6727 15.0948 82.8096 15.382C83.1135 15.9806 83.3743 16.6018 83.59 17.2405M82.1801 13.6374C82.1801 13.1191 81.8593 12.8599 81.2176 12.8599C81.0084 12.8579 80.7994 12.876 80.5933 12.9141C80.6193 13.3177 80.6349 13.846 80.6349 14.4962H80.9835C81.783 14.4962 82.1818 14.2072 82.1801 13.6293" fill="#FCFCFD"/>
<path d="M88.9643 14.5991C88.9888 15.3339 88.7346 16.0491 88.2568 16.5903C88.0371 16.8452 87.7672 17.0478 87.4655 17.1843C87.1639 17.3208 86.8375 17.388 86.5087 17.3814C86.1982 17.3887 85.8897 17.3278 85.6033 17.2027C85.3169 17.0777 85.059 16.8911 84.8465 16.6553C84.6235 16.4091 84.4496 16.1193 84.3348 15.8026C84.22 15.4859 84.1667 15.1487 84.1779 14.8105C84.1531 14.0748 84.4072 13.3586 84.8855 12.8166C85.104 12.5631 85.3722 12.3613 85.672 12.2248C85.9717 12.0884 86.2961 12.0204 86.6231 12.0255C86.9334 12.0184 87.2416 12.079 87.5279 12.2036C87.8142 12.3282 88.0723 12.5139 88.2854 12.7489C88.5105 12.9951 88.6865 13.2855 88.803 13.6031C88.9196 13.9207 88.9744 14.2593 88.9643 14.5991ZM87.9238 14.7102C87.9447 14.2324 87.8028 13.7623 87.5232 13.3828C87.4065 13.2238 87.256 13.0952 87.0837 13.0068C86.9113 12.9185 86.7216 12.8728 86.5295 12.8735C86.3456 12.875 86.1648 12.9226 86.0023 13.0122C85.8398 13.1018 85.7003 13.2307 85.5956 13.3882C85.3306 13.7631 85.1958 14.2207 85.2132 14.6858C85.1935 15.1631 85.3363 15.6323 85.6164 16.0106C85.7321 16.1698 85.8815 16.299 86.0529 16.3883C86.2243 16.4776 86.4133 16.5245 86.6049 16.5253C86.7889 16.5239 86.9698 16.4765 87.1323 16.3869C87.2949 16.2973 87.4343 16.1682 87.5388 16.0106C87.8051 15.6352 87.9409 15.1766 87.9238 14.7102Z" fill="#FCFCFD"/>
<path d="M91.0871 17.2405H90.0232C90.0544 16.4278 90.0726 15.5446 90.0726 14.5748C90.0726 13.6049 90.0544 12.8112 90.0232 12.1366H91.0871C91.0524 12.7958 91.036 13.6085 91.0377 14.5748C91.0394 15.541 91.0559 16.4296 91.0871 17.2405Z" fill="#FCFCFD"/>
<path d="M96.5364 14.5152C96.5463 15.2283 96.3027 15.9202 95.8523 16.4576C95.6136 16.7377 95.3172 16.9581 94.9852 17.1021C94.6532 17.2461 94.2942 17.3101 93.9352 17.2892C93.564 17.2892 93.0524 17.273 92.4004 17.2405C92.4316 16.4521 92.4498 15.5636 92.4498 14.5747C92.4498 13.5859 92.4316 12.8139 92.4004 12.1366H93.0585C93.1652 12.1366 93.3186 12.1366 93.5398 12.1366L93.956 12.123C94.8612 12.123 95.5176 12.3587 95.9251 12.8301C96.3292 13.2913 96.548 13.8964 96.5364 14.5206M95.5089 14.6912C95.5242 14.2288 95.374 13.777 95.0875 13.4234C94.9242 13.2426 94.7239 13.1024 94.5014 13.0133C94.2789 12.9242 94.0401 12.8885 93.8025 12.9087C93.6545 12.9113 93.5069 12.9231 93.3603 12.9439C93.3837 13.464 93.3967 14.0113 93.3967 14.5693C93.3967 15.1924 93.3967 15.8128 93.4357 16.425C93.5957 16.4596 93.7587 16.4768 93.9221 16.4765C94.1476 16.4951 94.374 16.4573 94.5826 16.3664C94.7911 16.2754 94.9759 16.1339 95.1213 15.9537C95.3858 15.5875 95.5225 15.1384 95.5089 14.6804" fill="#FCFCFD"/>
<path d="M103.768 17.2405H102.564C102.492 16.7433 102.378 16.2537 102.223 15.7776H100.485C100.321 16.2516 100.202 16.7417 100.132 17.2405H99C99 17.1412 99.2922 16.3059 99.8766 14.7346C100.461 13.1634 100.754 12.2992 100.756 12.1421H102.176C102.176 12.2902 102.442 13.1417 102.972 14.6967C103.503 16.2517 103.768 17.0996 103.768 17.2405ZM102.031 15.0299C101.78 14.3132 101.566 13.5835 101.388 12.8437H101.326C101.326 12.9467 101.104 13.6727 100.662 15.0299H102.031Z" fill="#FCFCFD"/>
<path d="M108.154 13.4776C108.171 13.7492 108.119 14.0206 108.002 14.2639C107.884 14.5073 107.707 14.7137 107.488 14.8619C106.994 15.1715 106.425 15.3258 105.849 15.3062C105.732 15.3062 105.646 15.3062 105.589 15.3062C105.589 15.7993 105.603 16.4467 105.631 17.2486H104.572C104.603 16.4955 104.621 15.6069 104.621 14.5829C104.621 13.6429 104.603 12.8328 104.572 12.1447H105.225C105.319 12.1447 105.485 12.1447 105.761 12.1447C106.037 12.1447 106.252 12.1312 106.445 12.1312C106.873 12.1124 107.297 12.2275 107.662 12.4617C107.823 12.5717 107.954 12.7241 108.04 12.9034C108.127 13.0828 108.166 13.2828 108.154 13.483M107.184 13.6997C107.184 13.1381 106.828 12.8581 106.117 12.8599C105.928 12.8606 105.739 12.8805 105.553 12.9195C105.579 13.4126 105.594 13.9707 105.594 14.5964C105.657 14.5964 105.73 14.5964 105.81 14.5964C106.726 14.5964 107.184 14.293 107.184 13.6916" fill="#FCFCFD"/>
<path d="M112.665 13.4776C112.681 13.749 112.628 14.0203 112.511 14.2635C112.394 14.5067 112.217 14.7132 111.999 14.8619C111.505 15.1711 110.936 15.3254 110.36 15.3062C110.243 15.3062 110.157 15.3062 110.1 15.3062C110.1 15.7992 110.114 16.4467 110.141 17.2486H109.085C109.116 16.4955 109.135 15.6069 109.135 14.5829C109.135 13.6428 109.116 12.8328 109.085 12.1447H109.738C109.832 12.1447 109.998 12.1447 110.271 12.1447C110.545 12.1447 110.763 12.1311 110.958 12.1311C111.386 12.1132 111.809 12.2283 112.173 12.4617C112.334 12.5716 112.464 12.724 112.551 12.9034C112.637 13.0828 112.676 13.2827 112.665 13.483M111.694 13.6997C111.694 13.138 111.338 12.8581 110.625 12.8599C110.436 12.8607 110.248 12.8806 110.063 12.9195C110.089 13.4125 110.105 13.9706 110.105 14.5964C110.167 14.5964 110.24 14.5964 110.321 14.5964C111.236 14.5964 111.694 14.293 111.694 13.6916" fill="#FCFCFD"/>
<path d="M120.039 14.5991C120.062 15.3337 119.808 16.0485 119.332 16.5903C119.111 16.8459 118.841 17.0489 118.538 17.1854C118.235 17.322 117.908 17.3888 117.578 17.3814C117.268 17.3892 116.959 17.3286 116.673 17.2035C116.386 17.0783 116.128 16.8915 115.916 16.6553C115.693 16.4095 115.518 16.1197 115.404 15.8029C115.289 15.4862 115.236 15.1488 115.248 14.8105C115.223 14.0753 115.476 13.3595 115.952 12.8166C116.173 12.5618 116.443 12.3592 116.745 12.2228C117.047 12.0863 117.374 12.019 117.703 12.0255C118.013 12.0184 118.322 12.079 118.608 12.2036C118.894 12.3282 119.152 12.5139 119.365 12.7489C119.589 12.996 119.763 13.2867 119.877 13.6043C119.992 13.9219 120.045 14.26 120.034 14.5991M118.993 14.7102C119.013 14.2321 118.871 13.7619 118.59 13.3828C118.474 13.2237 118.324 13.095 118.152 13.0066C117.98 12.9182 117.791 12.8726 117.599 12.8735C117.415 12.8748 117.234 12.9223 117.072 13.0119C116.909 13.1015 116.77 13.2306 116.665 13.3882C116.4 13.7631 116.265 14.2207 116.283 14.6858C116.262 15.1633 116.405 15.6328 116.686 16.0106C116.803 16.1712 116.954 16.3014 117.127 16.3907C117.301 16.4801 117.491 16.5261 117.685 16.5253C117.868 16.524 118.049 16.4765 118.211 16.3869C118.373 16.2972 118.512 16.1681 118.616 16.0106C118.882 15.6372 119.018 15.1804 119.001 14.7156" fill="#FCFCFD"/>
<path d="M125.135 17.2405H124.207C124.207 17.1339 123.86 16.5686 123.166 15.5446C122.443 14.461 122.032 13.7241 121.933 13.334H121.871C121.931 13.8483 121.963 14.3656 121.967 14.8836C121.967 15.5283 121.983 16.314 122.019 17.2405H121.093C121.131 16.4332 121.15 15.5446 121.15 14.5748C121.15 13.6049 121.131 12.7922 121.093 12.1366H122.209C122.209 12.2748 122.521 12.8274 123.14 13.7945C123.797 14.8186 124.176 15.5139 124.274 15.8805H124.342C124.285 15.3606 124.255 14.8379 124.251 14.3147C124.251 13.6076 124.235 12.8816 124.199 12.1474H125.138C125.104 12.7949 125.086 13.6076 125.086 14.5856C125.086 15.5636 125.104 16.4548 125.138 17.2513" fill="#FCFCFD"/>
</g>
<rect x="0.75" y="0.75" width="203.5" height="59.5" rx="4.25" stroke="#979797" stroke-width="1.5"/>
<defs>
<linearGradient id="paint0_linear_1151_4870" x1="33.511" y1="11.3191" x2="33.511" y2="52.627" gradientUnits="userSpaceOnUse">
<stop stop-color="#2079B0"/>
<stop offset="0.32" stop-color="#4A98B5"/>
<stop offset="0.78" stop-color="#81BFBC"/>
<stop offset="1" stop-color="#97CFBF"/>
</linearGradient>
<linearGradient id="paint1_linear_1151_4870" x1="22.7073" y1="23.0245" x2="48.0803" y2="23.0245" gradientUnits="userSpaceOnUse">
<stop stop-color="#5ABCAB"/>
<stop offset="1" stop-color="#E6E99A"/>
</linearGradient>
<linearGradient id="paint2_linear_1151_4870" x1="33.1331" y1="32.7797" x2="33.1331" y2="53.5826" gradientUnits="userSpaceOnUse">
<stop stop-color="#E53432"/>
<stop offset="0.18" stop-color="#D43745"/>
<stop offset="0.73" stop-color="#A33E7C"/>
<stop offset="1" stop-color="#904192"/>
</linearGradient>
<linearGradient id="paint3_linear_1151_4870" x1="53.3275" y1="25.3941" x2="53.3275" y2="36.4904" gradientUnits="userSpaceOnUse">
<stop stop-color="#F18779"/>
<stop offset="0.64" stop-color="#F9B574"/>
<stop offset="1" stop-color="#FDCB72"/>
</linearGradient>
<clipPath id="clip0_1151_4870">
<rect width="205" height="61" rx="5" fill="white"/>
</clipPath>
</defs>
</svg>
