<svg width="504" height="500" viewBox="0 0 504 500" fill="none" xmlns="http://www.w3.org/2000/svg">
<circle cx="250" cy="250" r="249.5" stroke="#4801DB" stroke-opacity="0.6"/>
<circle cx="250" cy="250" r="199.5" stroke="#4801DB" stroke-opacity="0.6"/>
<circle cx="250" cy="250" r="149.5" stroke="#4801DB" stroke-opacity="0.6"/>
<circle cx="250" cy="250" r="99.5" stroke="#4801DB" stroke-opacity="0.6"/>
<circle cx="250" cy="250" r="49.5" stroke="#4801DB" stroke-opacity="0.6"/>
<rect x="30" y="70" width="50" height="50" rx="24" fill="#FFD243"/>
<path fill-rule="evenodd" clip-rule="evenodd" d="M57.2122 98.7839C60.4522 100.36 63.8544 103.253 65.24 106.597C63.4624 108.038 63.2314 108.217 61.1424 109.974C59.1304 106.101 56.6936 103.966 53.3623 103.111C51.4062 105.632 48.2222 108.576 43.2427 109.935C42.1328 107.586 41.8304 106.922 41.0808 105.15C45.0636 104.227 46.5148 102.968 48.4645 99.2333C48.3247 94.7008 49.4897 90.2439 52.3959 88.4604C53.9071 88.956 56.4065 90.4466 57.1175 90.6724C57.0169 91.1326 57.348 91.6552 58.5682 91.9221C59.4936 92.125 61.6713 92.4447 63.7731 90.538C65.0618 92.5194 66.0806 94.434 66.0806 94.434C66.0806 94.434 62.0583 98.4285 57.2977 97.1741C57.2658 97.7947 57.2425 97.9928 57.2122 98.7839ZM57.7771 87.613C55.344 87.613 53.3099 85.6232 53.3099 83.1685C53.3099 80.7139 55.344 78.724 57.7771 78.724C60.2086 78.724 62.2745 80.7139 62.2745 83.1685C62.2745 85.6232 60.2086 87.613 57.7771 87.613Z" fill="white"/>
<rect x="415" y="164" width="55" height="55" rx="24" fill="url(#paint0_linear_793_2365)"/>
<path d="M429.908 200.376C431.882 202.34 437.141 203.52 442.5 203.54C447.859 203.52 453.118 202.34 455.092 200.376C459.997 195.495 448.074 176.796 442.506 176.769C436.926 176.796 425.003 195.495 429.908 200.376Z" fill="white"/>
<rect x="191" y="42" width="35" height="35" rx="17.5" fill="#006FCF"/>
<path fill-rule="evenodd" clip-rule="evenodd" d="M196.469 60.3644L200.935 50.3062H205.262L205.973 51.9089V50.3062H211.464L212.196 52.2128L212.928 50.3062H218.407V58.6356H219.783L215.105 63.6749L219.802 68.6938H213.399L211.922 67.1033L210.446 68.6938H200.057V60.3644H196.469Z" fill="white"/>
<path fill-rule="evenodd" clip-rule="evenodd" d="M200.815 58.8852H198.744L201.896 51.7853H203.699L203.699 51.7853H204.3L207.452 58.8852H205.382L204.811 57.4801H201.386L200.815 58.8852ZM202.005 55.9547H204.191L203.098 53.2644L202.005 55.9547ZM209.227 58.8853V53.2239L211.363 58.8829H211.372H213.02H213.029L215.153 53.2544V58.8853H216.928V51.7854H215.174L215.153 51.7854L213.944 51.7854L212.196 56.3409L210.448 51.7854H209.227H209.218L207.452 51.7854V58.8853H209.227ZM209.747 60.1148H207.452L210.761 63.679L207.452 67.2147H209.801L211.922 64.9294L214.044 67.2147H216.392L213.083 63.679L216.392 60.1148H214.097L211.922 62.4386L209.747 60.1148ZM201.536 61.6587H201.536V62.8928H201.536L201.536 64.4367H201.536V65.6663H201.536L201.536 67.2101H201.536V67.2147H203.311V67.2101L207.452 67.2101L207.452 65.6663H203.311V64.4367L207.36 64.4367V62.8928L203.311 62.8928V61.6587L207.452 61.6587L207.452 60.1148H203.311V60.1148H201.536V60.1148H201.536L201.536 61.6587Z" fill="#006FCF"/>
<rect x="275" y="141" width="45" height="45" rx="22.5" fill="url(#paint1_linear_793_2365)"/>
<path d="M297.301 149.146C290.067 149.257 284.117 155.059 283.845 162.294C283.611 168.528 287.586 173.886 293.141 175.762C293.264 175.799 293.388 175.7 293.363 175.564C293.289 175.058 293.203 174.54 293.129 174.021C293.104 173.873 293.005 173.737 292.869 173.676C288.573 171.836 285.573 167.528 285.684 162.54C285.82 156.331 290.82 151.245 297.03 150.998C303.758 150.739 309.313 156.133 309.313 162.8C309.313 167.676 306.35 171.861 302.128 173.676C301.98 173.737 301.881 173.861 301.869 174.021C301.795 174.552 301.721 175.071 301.634 175.564C301.61 175.688 301.733 175.799 301.857 175.762C307.264 173.935 311.165 168.824 311.165 162.812C311.165 155.207 304.93 149.035 297.301 149.146Z" fill="white"/>
<path d="M297.548 153.689C292.524 153.664 288.388 157.775 288.376 162.8C288.363 165.985 289.993 168.787 292.462 170.429C292.573 170.503 292.733 170.417 292.721 170.281C292.672 169.614 292.635 168.985 292.622 168.404C292.622 168.281 292.573 168.17 292.474 168.083C291.018 166.688 290.129 164.701 290.227 162.516C290.388 158.775 293.412 155.738 297.153 155.565C301.326 155.368 304.77 158.701 304.77 162.837C304.77 164.911 303.906 166.775 302.511 168.096C302.424 168.182 302.375 168.293 302.363 168.417C302.35 168.997 302.313 169.626 302.264 170.293C302.252 170.429 302.412 170.515 302.523 170.441C304.992 168.812 306.609 166.009 306.609 162.837C306.622 157.8 302.56 153.714 297.548 153.689Z" fill="white"/>
<path d="M297.499 164.923C299.278 164.923 300.721 163.48 300.721 161.701C300.721 159.921 299.278 158.479 297.499 158.479C295.719 158.479 294.277 159.921 294.277 161.701C294.277 163.48 295.719 164.923 297.499 164.923Z" fill="white"/>
<path d="M300.721 167.713C300.029 166.281 298.573 166.071 297.499 166.071C296.425 166.071 294.968 166.281 294.277 167.713C293.573 169.17 294.869 177.231 295.338 178.009C295.709 178.626 296.388 179.145 297.499 179.145C298.61 179.145 299.289 178.638 299.659 178.009C300.128 177.231 301.424 169.17 300.721 167.713Z" fill="white"/>
<rect x="175" y="310" width="40" height="40" rx="20" fill="#7000E3"/>
<path fill-rule="evenodd" clip-rule="evenodd" d="M195.701 338.224C192.501 338.224 189.894 335.618 189.894 332.418C189.894 329.209 192.501 326.602 195.692 326.602C198.883 326.602 201.498 329.209 201.498 332.418C201.498 335.618 198.892 338.224 195.692 338.224H195.701ZM195.692 323.16C193.481 323.16 191.449 323.942 189.849 325.227V318.333H186.497V332.409C186.497 337.532 190.631 341.667 195.737 341.667C200.842 341.667 204.995 337.532 204.995 332.409C204.995 327.304 200.842 323.151 195.737 323.151L195.692 323.16Z" fill="white"/>
<rect x="306" y="350" width="45" height="45" rx="22.5" fill="#2319DC"/>
<path fill-rule="evenodd" clip-rule="evenodd" d="M322.081 367.566C322.171 368.376 322.578 372.018 319.542 372.673C316.505 373.332 315.375 369.798 315.709 368.143C315.709 368.143 316.068 364.568 318.532 364.347C320.488 364.175 321.93 366.328 322.08 367.56L322.081 367.566ZM328.229 362.195C328.229 364.598 326.872 366.542 325.192 366.542C323.512 366.542 322.151 364.598 322.151 362.196C322.151 359.793 323.512 357.852 325.192 357.852C326.872 357.852 328.229 359.793 328.229 362.195ZM336.409 362.889C336.121 364.714 334.681 367.124 332.433 366.828C330.187 366.539 329.679 364.498 329.898 362.451C330.077 360.777 332.068 358.212 333.663 358.58C335.252 358.944 336.704 361.065 336.409 362.889ZM337.936 366.39C340.616 366.39 341.336 369.022 341.336 369.896C341.336 369.962 341.338 370.044 341.34 370.14C341.37 371.315 341.45 374.5 338.37 374.569C335.035 374.641 334.896 372.305 334.896 370.629C334.896 368.874 335.251 366.39 337.936 366.39ZM332.433 371.941C334.461 374.861 337.936 377.562 337.936 377.562C337.936 377.562 340.54 379.609 338.875 383.55C337.213 387.494 331.129 385.444 331.129 385.444C331.129 385.444 328.885 384.718 326.277 385.301C323.674 385.886 321.43 385.665 321.43 385.665C321.43 385.665 318.385 385.739 317.516 381.87C316.78 378.58 319.489 376.555 320.499 375.8C320.678 375.667 320.803 375.573 320.847 375.519C320.919 375.428 321.1 375.273 321.35 375.057C322.102 374.41 323.487 373.22 324.464 371.575C325.771 369.388 329.679 367.634 332.433 371.941ZM325.732 376.395V373.797L327.522 373.825V383.431H323.568C321.858 383.088 321.178 381.917 321.093 381.715C321.087 381.702 321.08 381.686 321.071 381.666C320.948 381.387 320.541 380.465 320.781 378.969C321.518 376.571 323.625 376.395 323.625 376.395H325.732ZM324.107 381.855H325.7L325.7 377.942H323.994C323.226 378.172 322.854 378.77 322.773 379.029C322.685 379.287 322.485 379.944 322.659 380.513C322.997 381.797 324.107 381.855 324.107 381.855ZM328.491 381.686V376.628L330.341 376.598V381.144C330.453 381.628 331.052 381.715 331.052 381.715H332.927V376.628H334.891V383.404H330.34C328.574 382.946 328.491 381.686 328.491 381.686Z" fill="white"/>
<rect x="38" y="266" width="45" height="45" rx="22.5" fill="#7289DA"/>
<path d="M71.7844 280.794C69.7202 279.142 67.2431 278.317 64.6284 278.179L64.2156 278.592C66.555 279.142 68.6193 280.243 70.5459 281.757C68.2064 280.518 65.5917 279.693 62.8395 279.417C62.0138 279.28 61.3257 279.28 60.5 279.28C59.6743 279.28 58.9862 279.28 58.1606 279.417C55.4083 279.693 52.7936 280.518 50.4541 281.757C52.3807 280.243 54.445 279.142 56.7844 278.592L56.3716 278.179C53.7569 278.317 51.2798 279.142 49.2156 280.794C46.8761 285.197 45.6376 290.151 45.5 295.243C47.5642 297.445 50.4541 298.821 53.4817 298.821C53.4817 298.821 54.445 297.72 55.133 296.757C53.344 296.344 51.6927 295.381 50.5917 293.867C51.555 294.417 52.5183 294.968 53.4817 295.381C54.7202 295.931 55.9587 296.206 57.1972 296.482C58.2982 296.619 59.3991 296.757 60.5 296.757C61.6009 296.757 62.7018 296.619 63.8028 296.482C65.0413 296.206 66.2798 295.931 67.5184 295.381C68.4817 294.968 69.445 294.417 70.4083 293.867C69.3073 295.381 67.656 296.344 65.867 296.757C66.555 297.72 67.5184 298.821 67.5184 298.821C70.5459 298.821 73.4358 297.445 75.5 295.243C75.3624 290.151 74.1239 285.197 71.7844 280.794ZM55.9587 292.766C54.5826 292.766 53.344 291.528 53.344 290.014C53.344 288.5 54.5826 287.261 55.9587 287.261C57.3349 287.261 58.5734 288.5 58.5734 290.014C58.5734 291.528 57.3349 292.766 55.9587 292.766ZM65.0413 292.766C63.6651 292.766 62.4266 291.528 62.4266 290.014C62.4266 288.5 63.6651 287.261 65.0413 287.261C66.4174 287.261 67.656 288.5 67.656 290.014C67.656 291.528 66.4174 292.766 65.0413 292.766Z" fill="white"/>
<rect x="347" y="453" width="35" height="35" rx="17.5" fill="#4267B2"/>
<path d="M365.668 482.167V471.523H369.241L369.776 467.375H365.668V464.727C365.668 463.526 366.002 462.707 367.724 462.707L369.921 462.706V458.997C369.541 458.946 368.237 458.833 366.72 458.833C363.553 458.833 361.385 460.766 361.385 464.316V467.375H357.803V471.523H361.385V482.167L365.668 482.167Z" fill="white"/>
<rect x="49" y="402" width="55" height="55" rx="24" fill="#007FFF"/>
<path fill-rule="evenodd" clip-rule="evenodd" d="M78.208 434.46L73.8311 429.792L65.2908 434.46L74.6851 424.487L79.1689 429.155L87.6026 424.487L78.208 434.46ZM76.5 413.029C67.0077 413.029 59.3125 420.154 59.3125 428.943C59.3125 433.951 61.8119 438.418 65.7178 441.336V447.404L71.5699 444.192C73.1318 444.624 74.7864 444.857 76.5 444.857C85.9923 444.857 93.6875 437.732 93.6875 428.943C93.6875 420.154 85.9923 413.029 76.5 413.029Z" fill="white"/>
<rect x="338" y="2" width="40" height="40" rx="20" fill="#00B900"/>
<path fill-rule="evenodd" clip-rule="evenodd" d="M371.333 21.0013C371.333 15.0351 365.352 10.1812 358 10.1812C350.648 10.1812 344.667 15.0351 344.667 21.0013C344.667 26.35 349.41 30.8295 355.818 31.6765C356.252 31.7701 356.843 31.9628 356.992 32.3339C357.127 32.6711 357.08 33.1992 357.035 33.5396C357.035 33.5396 356.879 34.4805 356.845 34.6809L356.84 34.7106C356.777 35.0715 356.617 35.9825 358 35.3996C359.423 34.8 365.679 30.8783 368.476 27.6585H368.475C370.408 25.5395 371.333 23.3892 371.333 21.0013ZM355.291 18.1182H354.356C354.212 18.1182 354.096 18.2345 354.096 18.3774V24.1872C354.096 24.3304 354.212 24.4464 354.356 24.4464H355.291C355.434 24.4464 355.551 24.3304 355.551 24.1872V18.3774C355.551 18.2345 355.434 18.1182 355.291 18.1182ZM360.793 18.1182H361.728C361.872 18.1182 361.988 18.2345 361.988 18.3774V24.1872C361.988 24.3304 361.872 24.4464 361.728 24.4464H360.793C360.77 24.4464 360.748 24.4431 360.726 24.4375L360.725 24.4371C360.725 24.437 360.724 24.4369 360.724 24.4368C360.723 24.4367 360.723 24.4367 360.723 24.4367L360.716 24.4346L360.705 24.4308L360.701 24.4293L360.697 24.428L360.69 24.4248L360.685 24.4226C360.68 24.4208 360.676 24.4188 360.672 24.4165L360.67 24.4156L360.665 24.4127C360.659 24.4096 360.654 24.4063 360.649 24.4029L360.646 24.4009C360.621 24.384 360.599 24.3628 360.58 24.3367L357.915 20.7366V24.1872C357.915 24.3304 357.798 24.4464 357.655 24.4464H356.72C356.576 24.4464 356.46 24.3304 356.46 24.1872V18.3774C356.46 18.2345 356.576 18.1182 356.72 18.1182H357.655L357.659 18.1185L357.664 18.1187L357.668 18.1189C357.671 18.119 357.674 18.1191 357.677 18.1195L357.682 18.12L357.686 18.1204L357.691 18.1213C357.695 18.1215 357.698 18.122 357.702 18.1226L357.717 18.1259L357.721 18.1271L357.726 18.1284C357.729 18.1292 357.732 18.1302 357.736 18.1313L357.741 18.1333L357.75 18.1364C357.755 18.1382 357.76 18.1405 357.765 18.1428C357.766 18.1434 357.768 18.1442 357.77 18.1451L357.773 18.1466C357.777 18.1489 357.782 18.1517 357.787 18.1545L357.79 18.1562L357.794 18.1591C357.797 18.1608 357.8 18.1628 357.803 18.1647L357.808 18.1683L357.81 18.1697C357.812 18.171 357.813 18.1722 357.815 18.1737C357.82 18.1773 357.824 18.1811 357.828 18.1852L357.833 18.1895C357.839 18.1946 357.844 18.1998 357.849 18.2056L357.851 18.2072C357.858 18.2156 357.865 18.2243 357.871 18.2335L360.533 21.829V18.3774C360.533 18.2345 360.65 18.1182 360.793 18.1182ZM353.036 22.9916H350.495V18.3778C350.495 18.2344 350.379 18.1181 350.236 18.1181H349.3C349.157 18.1181 349.041 18.2344 349.041 18.3778V24.1866V24.1871C349.041 24.2569 349.068 24.32 349.113 24.3665L349.113 24.3665C349.114 24.3678 349.115 24.3691 349.117 24.3704L349.121 24.3739C349.167 24.4189 349.23 24.4465 349.3 24.4465H349.3H353.036C353.18 24.4465 353.296 24.33 353.296 24.1866V23.2513C353.296 23.1079 353.18 22.9916 353.036 22.9916ZM367.152 19.3133C367.152 19.4569 367.036 19.573 366.893 19.573H364.352V20.5547H366.893C367.036 20.5547 367.152 20.6713 367.152 20.8147V21.7499C367.152 21.8933 367.036 22.0096 366.893 22.0096H364.352V22.9916H366.893C367.036 22.9916 367.152 23.1082 367.152 23.2513V24.1868C367.152 24.33 367.036 24.4465 366.893 24.4465H363.157H363.156C363.087 24.4465 363.024 24.4186 362.977 24.3739C362.976 24.3729 362.974 24.3716 362.973 24.3703C362.972 24.3693 362.971 24.3678 362.97 24.3665C362.925 24.32 362.897 24.2569 362.897 24.1871V24.1868V18.378V18.3778C362.897 18.3082 362.925 18.2454 362.969 18.1988C362.97 18.1973 362.972 18.1958 362.973 18.1942C362.974 18.1937 362.974 18.1932 362.975 18.1927C362.975 18.1923 362.976 18.1919 362.976 18.1914C363.023 18.1462 363.086 18.1181 363.156 18.1181H363.157H366.893C367.036 18.1181 367.152 18.2346 367.152 18.378V19.3133Z" fill="white"/>
<rect x="464" y="326" width="40" height="40" rx="20" fill="#005FF9"/>
<path d="M488.01 346C488.01 348.211 486.211 350.01 484 350.01C481.789 350.01 479.989 348.211 479.989 346C479.989 343.789 481.789 341.99 484 341.99C486.211 341.99 488.01 343.789 488.01 346ZM484 332.667C476.648 332.667 470.667 338.648 470.667 346C470.667 353.352 476.648 359.333 484 359.333C486.693 359.333 489.29 358.531 491.51 357.014L491.549 356.988L489.752 354.9L489.722 354.919C488.013 356.019 486.034 356.6 484 356.6C478.155 356.6 473.4 351.845 473.4 346C473.4 340.155 478.155 335.4 484 335.4C489.845 335.4 494.6 340.155 494.6 346C494.6 346.757 494.515 347.524 494.35 348.278C494.015 349.654 493.051 350.075 492.329 350.02C491.601 349.961 490.749 349.443 490.744 348.174V347.208V346C490.744 342.281 487.719 339.256 484 339.256C480.281 339.256 477.256 342.281 477.256 346C477.256 349.719 480.281 352.744 484 352.744C485.807 352.744 487.501 352.038 488.778 350.753C489.521 351.91 490.731 352.634 492.109 352.745C492.228 352.754 492.349 352.759 492.468 352.759C493.438 352.759 494.399 352.434 495.174 351.847C495.973 351.239 496.57 350.362 496.9 349.308C496.952 349.137 497.049 348.748 497.049 348.745L497.052 348.73C497.247 347.885 497.333 347.042 497.333 346C497.333 338.648 491.352 332.667 484 332.667Z" fill="white"/>
<defs>
<linearGradient id="paint0_linear_793_2365" x1="415" y1="219" x2="470" y2="164" gradientUnits="userSpaceOnUse">
<stop stop-color="#C926FF"/>
<stop offset="1" stop-color="#4A26FF"/>
</linearGradient>
<linearGradient id="paint1_linear_793_2365" x1="297.453" y1="186.571" x2="297.072" y2="141" gradientUnits="userSpaceOnUse">
<stop stop-color="#822CBE"/>
<stop offset="1" stop-color="#D772FB"/>
</linearGradient>
</defs>
</svg>
