<svg width="205" height="61" viewBox="0 0 205 61" fill="none" xmlns="http://www.w3.org/2000/svg">
<rect x="1" y="1" width="203" height="59" rx="4" fill="url(#paint0_linear_1151_5301)" stroke="#979797" stroke-width="2"/>
<path d="M29.5 43.625C36.7487 43.625 42.625 37.7487 42.625 30.5C42.625 23.2513 36.7487 17.375 29.5 17.375C22.2513 17.375 16.375 23.2513 16.375 30.5C16.375 37.7487 22.2513 43.625 29.5 43.625Z" stroke="white" stroke-width="1.19999" stroke-miterlimit="10"/>
<path d="M17.1228 26.125H41.8778" stroke="white" stroke-width="1.19999" stroke-linecap="round" stroke-linejoin="round"/>
<path d="M17.123 34.875H41.8779" stroke="white" stroke-width="1.19999" stroke-linecap="round" stroke-linejoin="round"/>
<path d="M29.5002 43.2729C32.5206 43.2729 34.969 37.5544 34.969 30.5002C34.969 23.4461 32.5206 17.7275 29.5002 17.7275C26.4799 17.7275 24.0315 23.4461 24.0315 30.5002C24.0315 37.5544 26.4799 43.2729 29.5002 43.2729Z" stroke="white" stroke-width="1.19999" stroke-miterlimit="10"/>
<path d="M55.48 24.21C54.7753 24.21 54.1407 24.0933 53.576 23.86C53.016 23.622 52.5517 23.286 52.183 22.852C51.819 22.418 51.581 21.9023 51.469 21.305L52.519 21.13C52.687 21.7833 53.0417 22.2967 53.583 22.67C54.1243 23.0387 54.7707 23.223 55.522 23.223C56.0167 23.223 56.46 23.146 56.852 22.992C57.244 22.8333 57.552 22.6093 57.776 22.32C58 22.0307 58.112 21.6877 58.112 21.291C58.112 21.0297 58.0653 20.808 57.972 20.626C57.8787 20.4393 57.755 20.2853 57.601 20.164C57.447 20.0427 57.279 19.9423 57.097 19.863C56.915 19.779 56.7377 19.7113 56.565 19.66L54.01 18.897C53.702 18.8083 53.4173 18.6963 53.156 18.561C52.8947 18.421 52.666 18.2553 52.47 18.064C52.2787 17.868 52.1293 17.6393 52.022 17.378C51.9147 17.1167 51.861 16.818 51.861 16.482C51.861 15.9127 52.0103 15.4203 52.309 15.005C52.6077 14.5897 53.016 14.27 53.534 14.046C54.052 13.822 54.6423 13.7123 55.305 13.717C55.977 13.717 56.5767 13.836 57.104 14.074C57.636 14.312 58.0747 14.6527 58.42 15.096C58.7653 15.5347 58.994 16.055 59.106 16.657L58.028 16.853C57.958 16.4143 57.797 16.034 57.545 15.712C57.293 15.39 56.971 15.1427 56.579 14.97C56.1917 14.7927 55.7647 14.7017 55.298 14.697C54.8453 14.697 54.4417 14.774 54.087 14.928C53.737 15.0773 53.4593 15.2827 53.254 15.544C53.0487 15.8053 52.946 16.104 52.946 16.44C52.946 16.7807 53.0393 17.0537 53.226 17.259C53.4173 17.4643 53.6507 17.6253 53.926 17.742C54.206 17.8587 54.4767 17.9543 54.738 18.029L56.712 18.61C56.9173 18.666 57.1577 18.7477 57.433 18.855C57.713 18.9577 57.9837 19.107 58.245 19.303C58.511 19.4943 58.7303 19.7463 58.903 20.059C59.0757 20.3717 59.162 20.7683 59.162 21.249C59.162 21.7157 59.0687 22.1333 58.882 22.502C58.7 22.8707 58.441 23.181 58.105 23.433C57.7737 23.685 57.384 23.8763 56.936 24.007C56.4927 24.1423 56.0073 24.21 55.48 24.21ZM60.747 15.005V13.85H61.776V15.005H60.747ZM60.747 24V16.44H61.776V24H60.747ZM66.8775 27.57C66.4902 27.57 66.1075 27.5117 65.7295 27.395C65.3562 27.283 65.0109 27.1033 64.6935 26.856C64.3762 26.6133 64.1102 26.296 63.8955 25.904L64.8265 25.386C65.0365 25.806 65.3305 26.107 65.7085 26.289C66.0912 26.4757 66.4809 26.569 66.8775 26.569C67.4235 26.569 67.8645 26.4663 68.2005 26.261C68.5412 26.0603 68.7885 25.7617 68.9425 25.365C69.0965 24.9683 69.1712 24.4737 69.1665 23.881V21.865H69.2855V16.44H70.2025V23.895C70.2025 24.1097 70.1955 24.315 70.1815 24.511C70.1722 24.7117 70.1512 24.9077 70.1185 25.099C70.0299 25.6637 69.8455 26.128 69.5655 26.492C69.2902 26.856 68.9262 27.1267 68.4735 27.304C68.0255 27.4813 67.4935 27.57 66.8775 27.57ZM66.8075 24.21C66.1029 24.21 65.5009 24.035 65.0015 23.685C64.5022 23.3303 64.1195 22.852 63.8535 22.25C63.5875 21.648 63.4545 20.969 63.4545 20.213C63.4545 19.4617 63.5852 18.785 63.8465 18.183C64.1125 17.581 64.4929 17.105 64.9875 16.755C65.4822 16.405 66.0749 16.23 66.7655 16.23C67.4749 16.23 68.0722 16.4027 68.5575 16.748C69.0429 17.0933 69.4092 17.567 69.6565 18.169C69.9085 18.7663 70.0345 19.4477 70.0345 20.213C70.0345 20.9643 69.9109 21.6433 69.6635 22.25C69.4162 22.852 69.0522 23.3303 68.5715 23.685C68.0909 24.035 67.5029 24.21 66.8075 24.21ZM66.9125 23.251C67.4492 23.251 67.8925 23.1203 68.2425 22.859C68.5925 22.5977 68.8539 22.2383 69.0265 21.781C69.1992 21.319 69.2855 20.7963 69.2855 20.213C69.2855 19.6203 69.1992 19.0977 69.0265 18.645C68.8539 18.1877 68.5925 17.8307 68.2425 17.574C67.8972 17.3173 67.4609 17.189 66.9335 17.189C66.3922 17.189 65.9442 17.322 65.5895 17.588C65.2349 17.854 64.9712 18.2157 64.7985 18.673C64.6305 19.1303 64.5465 19.6437 64.5465 20.213C64.5465 20.787 64.6329 21.305 64.8055 21.767C64.9829 22.2243 65.2465 22.586 65.5965 22.852C65.9465 23.118 66.3852 23.251 66.9125 23.251ZM77.6197 24V20.143C77.6197 19.723 77.58 19.338 77.5007 18.988C77.4214 18.6333 77.293 18.3253 77.1157 18.064C76.943 17.798 76.7167 17.5927 76.4367 17.448C76.1614 17.3033 75.8254 17.231 75.4287 17.231C75.0647 17.231 74.7427 17.294 74.4627 17.42C74.1874 17.546 73.954 17.728 73.7627 17.966C73.576 18.1993 73.4337 18.484 73.3357 18.82C73.2377 19.156 73.1887 19.5387 73.1887 19.968L72.4607 19.807C72.4607 19.0323 72.596 18.3813 72.8667 17.854C73.1374 17.3267 73.5107 16.9277 73.9867 16.657C74.4627 16.3863 75.0087 16.251 75.6247 16.251C76.0774 16.251 76.4717 16.321 76.8077 16.461C77.1484 16.601 77.4354 16.79 77.6687 17.028C77.9067 17.266 78.098 17.539 78.2427 17.847C78.3874 18.1503 78.4924 18.4747 78.5577 18.82C78.623 19.1607 78.6557 19.5013 78.6557 19.842V24H77.6197ZM72.1527 24V16.44H73.0837V18.302H73.1887V24H72.1527ZM83.4149 15.005V13.85H84.4439V15.005H83.4149ZM83.4149 24V16.44H84.4439V24H83.4149ZM92.0025 24V20.143C92.0025 19.723 91.9628 19.338 91.8835 18.988C91.8042 18.6333 91.6758 18.3253 91.4985 18.064C91.3258 17.798 91.0995 17.5927 90.8195 17.448C90.5442 17.3033 90.2082 17.231 89.8115 17.231C89.4475 17.231 89.1255 17.294 88.8455 17.42C88.5702 17.546 88.3368 17.728 88.1455 17.966C87.9588 18.1993 87.8165 18.484 87.7185 18.82C87.6205 19.156 87.5715 19.5387 87.5715 19.968L86.8435 19.807C86.8435 19.0323 86.9788 18.3813 87.2495 17.854C87.5202 17.3267 87.8935 16.9277 88.3695 16.657C88.8455 16.3863 89.3915 16.251 90.0075 16.251C90.4602 16.251 90.8545 16.321 91.1905 16.461C91.5312 16.601 91.8182 16.79 92.0515 17.028C92.2895 17.266 92.4808 17.539 92.6255 17.847C92.7702 18.1503 92.8752 18.4747 92.9405 18.82C93.0058 19.1607 93.0385 19.5013 93.0385 19.842V24H92.0025ZM86.5355 24V16.44H87.4665V18.302H87.5715V24H86.5355ZM101.774 24C101.349 24.0887 100.929 24.1237 100.514 24.105C100.103 24.0863 99.7344 23.9977 99.4077 23.839C99.0857 23.6803 98.8407 23.433 98.6727 23.097C98.5374 22.817 98.4627 22.5347 98.4487 22.25C98.4394 21.9607 98.4347 21.6317 98.4347 21.263V14.34H99.4567V21.221C99.4567 21.5383 99.4591 21.8043 99.4637 22.019C99.4731 22.229 99.5221 22.4157 99.6107 22.579C99.7787 22.8917 100.045 23.0783 100.409 23.139C100.777 23.1997 101.232 23.1857 101.774 23.097V24ZM96.8177 17.322V16.44H101.774V17.322H96.8177ZM106.147 24.21C105.395 24.21 104.754 24.0397 104.222 23.699C103.69 23.3583 103.281 22.887 102.997 22.285C102.712 21.683 102.57 20.9923 102.57 20.213C102.57 19.4197 102.714 18.7243 103.004 18.127C103.293 17.5297 103.704 17.0653 104.236 16.734C104.772 16.398 105.409 16.23 106.147 16.23C106.903 16.23 107.547 16.4003 108.079 16.741C108.615 17.077 109.024 17.546 109.304 18.148C109.588 18.7453 109.731 19.4337 109.731 20.213C109.731 21.0063 109.588 21.704 109.304 22.306C109.019 22.9033 108.608 23.37 108.072 23.706C107.535 24.042 106.893 24.21 106.147 24.21ZM106.147 23.223C106.987 23.223 107.612 22.9453 108.023 22.39C108.433 21.83 108.639 21.1043 108.639 20.213C108.639 19.2983 108.431 18.5703 108.016 18.029C107.605 17.4877 106.982 17.217 106.147 17.217C105.582 17.217 105.115 17.3453 104.747 17.602C104.383 17.854 104.11 18.2063 103.928 18.659C103.75 19.107 103.662 19.625 103.662 20.213C103.662 21.123 103.872 21.8533 104.292 22.404C104.712 22.95 105.33 23.223 106.147 23.223ZM114.218 24V13.92H115.247V24H114.218ZM122.805 24V20.143C122.805 19.723 122.766 19.338 122.686 18.988C122.607 18.6333 122.479 18.3253 122.301 18.064C122.129 17.798 121.902 17.5927 121.622 17.448C121.347 17.3033 121.011 17.231 120.614 17.231C120.25 17.231 119.928 17.294 119.648 17.42C119.373 17.546 119.14 17.728 118.948 17.966C118.762 18.1993 118.619 18.484 118.521 18.82C118.423 19.156 118.374 19.5387 118.374 19.968L117.646 19.807C117.646 19.0323 117.782 18.3813 118.052 17.854C118.323 17.3267 118.696 16.9277 119.172 16.657C119.648 16.3863 120.194 16.251 120.81 16.251C121.263 16.251 121.657 16.321 121.993 16.461C122.334 16.601 122.621 16.79 122.854 17.028C123.092 17.266 123.284 17.539 123.428 17.847C123.573 18.1503 123.678 18.4747 123.743 18.82C123.809 19.1607 123.841 19.5013 123.841 19.842V24H122.805ZM117.338 24V16.44H118.269V18.302H118.374V24H117.338ZM128.479 24.203C127.592 24.203 126.862 24.0117 126.288 23.629C125.718 23.2463 125.368 22.7143 125.238 22.033L126.288 21.858C126.4 22.2873 126.654 22.6303 127.051 22.887C127.452 23.139 127.947 23.265 128.535 23.265C129.109 23.265 129.561 23.146 129.893 22.908C130.224 22.6653 130.39 22.3363 130.39 21.921C130.39 21.6877 130.336 21.4987 130.229 21.354C130.126 21.2047 129.914 21.067 129.592 20.941C129.27 20.815 128.789 20.6657 128.15 20.493C127.464 20.3063 126.927 20.1197 126.54 19.933C126.152 19.7463 125.877 19.5317 125.714 19.289C125.55 19.0417 125.469 18.7407 125.469 18.386C125.469 17.9567 125.59 17.581 125.833 17.259C126.075 16.9323 126.411 16.6803 126.841 16.503C127.27 16.321 127.769 16.23 128.339 16.23C128.908 16.23 129.417 16.3233 129.865 16.51C130.317 16.692 130.681 16.9487 130.957 17.28C131.232 17.6113 131.395 17.9963 131.447 18.435L130.397 18.624C130.327 18.1807 130.105 17.8307 129.732 17.574C129.363 17.3127 128.894 17.1773 128.325 17.168C127.788 17.154 127.352 17.2567 127.016 17.476C126.68 17.6907 126.512 17.9777 126.512 18.337C126.512 18.5377 126.572 18.7103 126.694 18.855C126.815 18.995 127.034 19.128 127.352 19.254C127.674 19.38 128.131 19.5177 128.724 19.667C129.419 19.8443 129.965 20.031 130.362 20.227C130.758 20.423 131.041 20.654 131.209 20.92C131.377 21.186 131.461 21.515 131.461 21.907C131.461 22.621 131.195 23.1833 130.663 23.594C130.135 24 129.407 24.203 128.479 24.203ZM137.129 24C136.705 24.0887 136.285 24.1237 135.869 24.105C135.459 24.0863 135.09 23.9977 134.763 23.839C134.441 23.6803 134.196 23.433 134.028 23.097C133.893 22.817 133.818 22.5347 133.804 22.25C133.795 21.9607 133.79 21.6317 133.79 21.263V14.34H134.812V21.221C134.812 21.5383 134.815 21.8043 134.819 22.019C134.829 22.229 134.878 22.4157 134.966 22.579C135.134 22.8917 135.4 23.0783 135.764 23.139C136.133 23.1997 136.588 23.1857 137.129 23.097V24ZM132.173 17.322V16.44H137.129V17.322H132.173ZM140.782 24.21C140.212 24.21 139.734 24.1073 139.347 23.902C138.964 23.6967 138.677 23.4237 138.486 23.083C138.294 22.7423 138.199 22.3713 138.199 21.97C138.199 21.5593 138.28 21.2093 138.444 20.92C138.612 20.626 138.838 20.3857 139.123 20.199C139.412 20.0123 139.746 19.87 140.124 19.772C140.506 19.6787 140.929 19.597 141.391 19.527C141.857 19.4523 142.312 19.3893 142.756 19.338C143.204 19.282 143.596 19.2283 143.932 19.177L143.568 19.401C143.582 18.6543 143.437 18.1013 143.134 17.742C142.83 17.3827 142.303 17.203 141.552 17.203C141.034 17.203 140.595 17.3197 140.236 17.553C139.881 17.7863 139.631 18.155 139.487 18.659L138.486 18.365C138.658 17.6883 139.006 17.1633 139.529 16.79C140.051 16.4167 140.73 16.23 141.566 16.23C142.256 16.23 142.842 16.3607 143.323 16.622C143.808 16.8787 144.151 17.252 144.352 17.742C144.445 17.9613 144.506 18.2063 144.534 18.477C144.562 18.7477 144.576 19.023 144.576 19.303V24H143.659V22.103L143.925 22.215C143.668 22.8637 143.269 23.3583 142.728 23.699C142.186 24.0397 141.538 24.21 140.782 24.21ZM140.901 23.321C141.381 23.321 141.801 23.2347 142.161 23.062C142.52 22.8893 142.809 22.6537 143.029 22.355C143.248 22.0517 143.39 21.711 143.456 21.333C143.512 21.0903 143.542 20.8243 143.547 20.535C143.551 20.241 143.554 20.0217 143.554 19.877L143.946 20.08C143.596 20.1267 143.215 20.1733 142.805 20.22C142.399 20.2667 141.997 20.3203 141.601 20.381C141.209 20.4417 140.854 20.514 140.537 20.598C140.322 20.6587 140.114 20.745 139.914 20.857C139.713 20.9643 139.547 21.109 139.417 21.291C139.291 21.473 139.228 21.6993 139.228 21.97C139.228 22.1893 139.281 22.4017 139.389 22.607C139.501 22.8123 139.678 22.9827 139.921 23.118C140.168 23.2533 140.495 23.321 140.901 23.321ZM151.858 24V20.143C151.858 19.723 151.818 19.338 151.739 18.988C151.66 18.6333 151.531 18.3253 151.354 18.064C151.181 17.798 150.955 17.5927 150.675 17.448C150.4 17.3033 150.064 17.231 149.667 17.231C149.303 17.231 148.981 17.294 148.701 17.42C148.426 17.546 148.192 17.728 148.001 17.966C147.814 18.1993 147.672 18.484 147.574 18.82C147.476 19.156 147.427 19.5387 147.427 19.968L146.699 19.807C146.699 19.0323 146.834 18.3813 147.105 17.854C147.376 17.3267 147.749 16.9277 148.225 16.657C148.701 16.3863 149.247 16.251 149.863 16.251C150.316 16.251 150.71 16.321 151.046 16.461C151.387 16.601 151.674 16.79 151.907 17.028C152.145 17.266 152.336 17.539 152.481 17.847C152.626 18.1503 152.731 18.4747 152.796 18.82C152.861 19.1607 152.894 19.5013 152.894 19.842V24H151.858ZM146.391 24V16.44H147.322V18.302H147.427V24H146.391ZM158.826 24C158.402 24.0887 157.982 24.1237 157.566 24.105C157.156 24.0863 156.787 23.9977 156.46 23.839C156.138 23.6803 155.893 23.433 155.725 23.097C155.59 22.817 155.515 22.5347 155.501 22.25C155.492 21.9607 155.487 21.6317 155.487 21.263V14.34H156.509V21.221C156.509 21.5383 156.512 21.8043 156.516 22.019C156.526 22.229 156.575 22.4157 156.663 22.579C156.831 22.8917 157.097 23.0783 157.461 23.139C157.83 23.1997 158.285 23.1857 158.826 23.097V24ZM153.87 17.322V16.44H158.826V17.322H153.87ZM164.397 24.21C163.394 24.21 162.547 23.9883 161.856 23.545C161.165 23.097 160.643 22.4787 160.288 21.69C159.933 20.9013 159.756 19.9913 159.756 18.96C159.756 17.9287 159.933 17.0187 160.288 16.23C160.643 15.4413 161.165 14.8253 161.856 14.382C162.547 13.934 163.394 13.71 164.397 13.71C165.405 13.71 166.252 13.934 166.938 14.382C167.629 14.8253 168.151 15.4413 168.506 16.23C168.865 17.0187 169.045 17.9287 169.045 18.96C169.045 19.9913 168.865 20.9013 168.506 21.69C168.151 22.4787 167.629 23.097 166.938 23.545C166.252 23.9883 165.405 24.21 164.397 24.21ZM164.397 23.223C165.186 23.223 165.844 23.0433 166.371 22.684C166.898 22.3247 167.293 21.8253 167.554 21.186C167.82 20.542 167.953 19.8 167.953 18.96C167.953 18.12 167.82 17.3803 167.554 16.741C167.293 16.1017 166.898 15.6023 166.371 15.243C165.844 14.8837 165.186 14.7017 164.397 14.697C163.608 14.697 162.953 14.8767 162.43 15.236C161.907 15.5953 161.513 16.097 161.247 16.741C160.986 17.3803 160.853 18.12 160.848 18.96C160.843 19.8 160.972 20.5397 161.233 21.179C161.499 21.8137 161.896 22.313 162.423 22.677C162.95 23.0363 163.608 23.2183 164.397 23.223ZM172.854 24V14.907H169.333V13.92H177.404V14.907H173.883V24H172.854ZM178.527 24V13.92H182.419C182.517 13.92 182.627 13.9247 182.748 13.934C182.874 13.9387 183 13.9527 183.126 13.976C183.653 14.0553 184.099 14.2397 184.463 14.529C184.832 14.8137 185.109 15.173 185.296 15.607C185.487 16.041 185.583 16.5217 185.583 17.049C185.583 17.5717 185.487 18.05 185.296 18.484C185.105 18.918 184.825 19.2797 184.456 19.569C184.092 19.8537 183.649 20.0357 183.126 20.115C183 20.1337 182.874 20.1477 182.748 20.157C182.627 20.1663 182.517 20.171 182.419 20.171H179.556V24H178.527ZM179.556 19.191H182.391C182.475 19.191 182.573 19.1863 182.685 19.177C182.797 19.1677 182.907 19.1513 183.014 19.128C183.359 19.0533 183.642 18.911 183.861 18.701C184.085 18.491 184.251 18.2413 184.358 17.952C184.47 17.6627 184.526 17.3617 184.526 17.049C184.526 16.7363 184.47 16.4353 184.358 16.146C184.251 15.852 184.085 15.6 183.861 15.39C183.642 15.18 183.359 15.0377 183.014 14.963C182.907 14.9397 182.797 14.9257 182.685 14.921C182.573 14.9117 182.475 14.907 182.391 14.907H179.556V19.191Z" fill="white"/>
<path d="M58.49 48.3C57.05 48.3 55.8167 47.9867 54.79 47.36C53.7633 46.7267 52.9733 45.8467 52.42 44.72C51.8733 43.5933 51.6 42.2867 51.6 40.8C51.6 39.3133 51.8733 38.0067 52.42 36.88C52.9733 35.7533 53.7633 34.8767 54.79 34.25C55.8167 33.6167 57.05 33.3 58.49 33.3C59.93 33.3 61.1633 33.6167 62.19 34.25C63.2233 34.8767 64.0133 35.7533 64.56 36.88C65.1133 38.0067 65.39 39.3133 65.39 40.8C65.39 42.2867 65.1133 43.5933 64.56 44.72C64.0133 45.8467 63.2233 46.7267 62.19 47.36C61.1633 47.9867 59.93 48.3 58.49 48.3ZM58.49 46.03C59.4567 46.0367 60.26 45.8233 60.9 45.39C61.5467 44.9567 62.03 44.3467 62.35 43.56C62.6767 42.7733 62.84 41.8533 62.84 40.8C62.84 39.7467 62.6767 38.8333 62.35 38.06C62.03 37.28 61.5467 36.6733 60.9 36.24C60.26 35.8067 59.4567 35.5833 58.49 35.57C57.5233 35.5633 56.72 35.7767 56.08 36.21C55.44 36.6433 54.9567 37.2533 54.63 38.04C54.31 38.8267 54.15 39.7467 54.15 40.8C54.15 41.8533 54.31 42.77 54.63 43.55C54.95 44.3233 55.43 44.9267 56.07 45.36C56.7167 45.7933 57.5233 46.0167 58.49 46.03ZM74.8505 48V42.8C74.8505 42.46 74.8271 42.0833 74.7805 41.67C74.7338 41.2567 74.6238 40.86 74.4505 40.48C74.2838 40.0933 74.0305 39.7767 73.6905 39.53C73.3571 39.2833 72.9038 39.16 72.3305 39.16C72.0238 39.16 71.7205 39.21 71.4205 39.31C71.1205 39.41 70.8471 39.5833 70.6005 39.83C70.3605 40.07 70.1671 40.4033 70.0205 40.83C69.8738 41.25 69.8005 41.79 69.8005 42.45L68.3705 41.84C68.3705 40.92 68.5471 40.0867 68.9005 39.34C69.2605 38.5933 69.7871 38 70.4805 37.56C71.1738 37.1133 72.0271 36.89 73.0405 36.89C73.8405 36.89 74.5005 37.0233 75.0205 37.29C75.5405 37.5567 75.9538 37.8967 76.2605 38.31C76.5671 38.7233 76.7938 39.1633 76.9405 39.63C77.0871 40.0967 77.1805 40.54 77.2205 40.96C77.2671 41.3733 77.2905 41.71 77.2905 41.97V48H74.8505ZM67.3605 48V37.2H69.5105V40.55H69.8005V48H67.3605ZM87.3639 48V35.86H82.7039V33.6H94.4339V35.86H89.7739V48H87.3639ZM103.503 48V42.8C103.503 42.46 103.479 42.0833 103.433 41.67C103.386 41.2567 103.276 40.86 103.103 40.48C102.936 40.0933 102.683 39.7767 102.343 39.53C102.009 39.2833 101.556 39.16 100.983 39.16C100.676 39.16 100.373 39.21 100.073 39.31C99.7728 39.41 99.4995 39.5833 99.2528 39.83C99.0128 40.07 98.8195 40.4033 98.6728 40.83C98.5261 41.25 98.4528 41.79 98.4528 42.45L97.0228 41.84C97.0228 40.92 97.1995 40.0867 97.5528 39.34C97.9128 38.5933 98.4395 38 99.1328 37.56C99.8261 37.1133 100.679 36.89 101.693 36.89C102.493 36.89 103.153 37.0233 103.673 37.29C104.193 37.5567 104.606 37.8967 104.913 38.31C105.219 38.7233 105.446 39.1633 105.593 39.63C105.739 40.0967 105.833 40.54 105.873 40.96C105.919 41.3733 105.943 41.71 105.943 41.97V48H103.503ZM96.0128 48V33.6H98.1628V41.18H98.4528V48H96.0128ZM113.462 48.3C112.369 48.3 111.409 48.0633 110.582 47.59C109.756 47.1167 109.109 46.46 108.642 45.62C108.182 44.78 107.952 43.8133 107.952 42.72C107.952 41.54 108.179 40.5167 108.632 39.65C109.086 38.7767 109.716 38.1 110.522 37.62C111.329 37.14 112.262 36.9 113.322 36.9C114.442 36.9 115.392 37.1633 116.172 37.69C116.959 38.21 117.542 38.9467 117.922 39.9C118.302 40.8533 118.446 41.9767 118.352 43.27H115.962V42.39C115.956 41.2167 115.749 40.36 115.342 39.82C114.936 39.28 114.296 39.01 113.422 39.01C112.436 39.01 111.702 39.3167 111.222 39.93C110.742 40.5367 110.502 41.4267 110.502 42.6C110.502 43.6933 110.742 44.54 111.222 45.14C111.702 45.74 112.402 46.04 113.322 46.04C113.916 46.04 114.426 45.91 114.852 45.65C115.286 45.3833 115.619 45 115.852 44.5L118.232 45.22C117.819 46.1933 117.179 46.95 116.312 47.49C115.452 48.03 114.502 48.3 113.462 48.3ZM109.742 43.27V41.45H117.172V43.27H109.742ZM127.628 48L123.418 33.6H125.948L128.818 44L131.678 33.62L134.207 33.6L137.078 44L139.938 33.6H142.468L138.268 48H135.888L132.938 37.76L130.008 48H127.628ZM147.818 48.3C146.724 48.3 145.764 48.0633 144.938 47.59C144.111 47.1167 143.464 46.46 142.998 45.62C142.538 44.78 142.308 43.8133 142.308 42.72C142.308 41.54 142.534 40.5167 142.988 39.65C143.441 38.7767 144.071 38.1 144.878 37.62C145.684 37.14 146.618 36.9 147.678 36.9C148.798 36.9 149.748 37.1633 150.528 37.69C151.314 38.21 151.898 38.9467 152.278 39.9C152.658 40.8533 152.801 41.9767 152.708 43.27H150.318V42.39C150.311 41.2167 150.104 40.36 149.698 39.82C149.291 39.28 148.651 39.01 147.778 39.01C146.791 39.01 146.058 39.3167 145.578 39.93C145.098 40.5367 144.858 41.4267 144.858 42.6C144.858 43.6933 145.098 44.54 145.578 45.14C146.058 45.74 146.758 46.04 147.678 46.04C148.271 46.04 148.781 45.91 149.208 45.65C149.641 45.3833 149.974 45 150.208 44.5L152.588 45.22C152.174 46.1933 151.534 46.95 150.668 47.49C149.808 48.03 148.858 48.3 147.818 48.3ZM144.098 43.27V41.45H151.528V43.27H144.098ZM160.129 48.3C159.076 48.3 158.192 48.05 157.479 47.55C156.766 47.05 156.229 46.37 155.869 45.51C155.509 44.6433 155.329 43.6733 155.329 42.6C155.329 41.5133 155.509 40.54 155.869 39.68C156.229 38.82 156.756 38.1433 157.449 37.65C158.149 37.15 159.012 36.9 160.039 36.9C161.059 36.9 161.942 37.15 162.689 37.65C163.442 38.1433 164.026 38.82 164.439 39.68C164.852 40.5333 165.059 41.5067 165.059 42.6C165.059 43.68 164.856 44.65 164.449 45.51C164.042 46.37 163.469 47.05 162.729 47.55C161.989 48.05 161.122 48.3 160.129 48.3ZM154.919 48V33.6H157.349V40.42H157.049V48H154.919ZM159.759 46.14C160.386 46.14 160.902 45.9833 161.309 45.67C161.716 45.3567 162.016 44.9333 162.209 44.4C162.409 43.86 162.509 43.26 162.509 42.6C162.509 41.9467 162.409 41.3533 162.209 40.82C162.009 40.28 161.699 39.8533 161.279 39.54C160.859 39.22 160.326 39.06 159.679 39.06C159.066 39.06 158.566 39.21 158.179 39.51C157.792 39.8033 157.506 40.2167 157.319 40.75C157.139 41.2767 157.049 41.8933 157.049 42.6C157.049 43.3 157.139 43.9167 157.319 44.45C157.506 44.9833 157.796 45.4 158.189 45.7C158.589 45.9933 159.112 46.14 159.759 46.14Z" fill="white"/>
<defs>
<linearGradient id="paint0_linear_1151_5301" x1="0" y1="30.5" x2="205" y2="30.5" gradientUnits="userSpaceOnUse">
<stop stop-color="#2C0D6B"/>
<stop offset="1" stop-color="#31058D"/>
</linearGradient>
</defs>
</svg>
